<svg xmlns="http://www.w3.org/2000/svg" xmlns:xlink="http://www.w3.org/1999/xlink" width="500" zoomAndPan="magnify" viewBox="0 0 375 374.999991" height="500" preserveAspectRatio="xMidYMid meet" version="1.0"><defs><clipPath id="95c9b25256"><path d="M 0 29.660156 L 375 29.660156 L 375 345.375 L 0 345.375 Z M 0 29.660156 " clip-rule="nonzero"/></clipPath><clipPath id="2fa68d909f"><path d="M 176 187.0625 L 210.320312 187.0625 L 210.320312 260.789062 L 176 260.789062 Z M 176 187.0625 " clip-rule="nonzero"/></clipPath><clipPath id="2a424748ef"><path d="M 200.402344 187.5 L 182.410156 189.914062 C 182.148438 189.957031 181.882812 190.175781 181.882812 190.441406 L 176.089844 229.015625 C 176.046875 229.453125 176.398438 229.804688 176.835938 229.761719 L 187.722656 227.917969 C 188.160156 227.832031 188.554688 228.269531 188.46875 228.707031 L 180.128906 259.558594 C 180.042969 259.953125 180.304688 260.347656 180.742188 260.347656 C 180.960938 260.347656 181.183594 260.21875 181.3125 260.042969 L 210.015625 209.835938 C 210.277344 209.355469 209.882812 208.785156 209.355469 208.871094 L 194.433594 211.8125 C 193.953125 211.898438 193.558594 211.460938 193.691406 210.976562 L 201.105469 188.332031 C 201.238281 187.894531 200.886719 187.457031 200.402344 187.5 Z M 200.402344 187.5 " clip-rule="nonzero"/></clipPath></defs><g clip-path="url(#95c9b25256)"><path fill="#00737d" d="M 237.683594 178.417969 L 237.683594 219.464844 C 237.683594 238.460938 225.636719 254.773438 208.816406 261.1875 L 208.816406 311.789062 L 267.570312 311.789062 L 267.570312 157.171875 L 187.515625 77.109375 L 107.429688 157.171875 L 107.429688 311.789062 L 145.738281 311.789062 L 145.738281 345.328125 L 73.914062 345.328125 L 73.914062 190.679688 L 47.378906 217.214844 L 0 217.214844 L 73.914062 143.300781 L 73.914062 92.535156 L 107.421875 92.535156 L 107.421875 109.761719 L 163.792969 53.390625 L 187.515625 29.699219 L 267.578125 109.761719 L 301.085938 143.300781 L 375 217.214844 L 327.613281 217.214844 L 301.078125 190.679688 L 301.078125 345.328125 L 177.261719 345.328125 L 177.261719 261.1875 C 160.441406 254.773438 148.417969 238.460938 148.417969 219.464844 L 148.417969 178.417969 L 162.097656 178.417969 L 162.097656 157.410156 C 162.097656 151.746094 166.738281 147.105469 172.402344 147.105469 C 178.085938 147.105469 182.730469 151.746094 182.730469 157.410156 L 182.730469 178.417969 L 203.363281 178.417969 L 203.363281 157.410156 C 203.363281 151.746094 208.003906 147.105469 213.667969 147.105469 C 219.351562 147.105469 223.996094 151.746094 223.996094 157.410156 L 223.996094 178.417969 Z M 174.898438 204.898438 L 174.898438 219.464844 C 174.898438 229.417969 183.058594 237.601562 193.035156 237.601562 C 203.015625 237.601562 211.171875 229.441406 211.171875 219.464844 L 211.171875 204.898438 Z M 174.898438 204.898438 " fill-opacity="1" fill-rule="evenodd"/></g><g clip-path="url(#2fa68d909f)"><g clip-path="url(#2a424748ef)"><path fill="#ffbd59" d="M 176.089844 187.5 L 210.320312 187.5 L 210.320312 260.347656 L 176.089844 260.347656 Z M 176.089844 187.5 " fill-opacity="1" fill-rule="nonzero"/></g></g></svg>